/* XPM */
static char *_47f68bd9f6a4451aea6b3bc7f4be756ap1Onb6k3UVIVtzQ[] = {
/* columns rows colors chars-per-pixel */
"64 64 7 1 ",
"  c #1D411E",
". c #367A37",
"X c #B0305C",
"o c #EB564B",
"O c #F2A65E",
"+ c #C2C2D1",
"@ c #DCF8E0",
/* pixels */
"++++++++++++++++++++++++++++++++++++++++++++++++++++++++++++++++",
"++++++++++++++++++++++++++++++++++++++++++++++++++++++++++++++++",
"++++++++++++++++++++++++++++++++++++++++++++++++++++++++++++++++",
"+++++++++++++++++@@@@@@@@@@@@@@@@@@@@@@@@+++++++++++++++++++++++",
"+++++@@@@@@@@@@@@@@@@@@@@@@@@@@@@@@@@@@@@@@@@@@@@@@@++++++++++++",
"+++@@@@@@@@@@@@@@@@@@@@@@@@@@@@@@@@@@@@@@@@@@@@@@@@@++++++++++++",
"++@@@@@@@@@@@@@@@@@@@@@@@@@@@@@@@@@@@@@@@@@@@@@@@+++++++++++++++",
"++@@@@@@@@@@@@@@@@@@@@@@@@@@@@@@@@@@@@@@@@@@++++++++++++++++++++",
"+++@@@@@@@@@@@@@@@@@@@@@@+++++++++++++++++++++++++++++++++++++++",
"++++@@@@@@@@@@@@@@++++++++++++++++++++++++++@@@@@@@@@@@@@@@+++++",
"+++++@@@@@@@@@@@+++++++++++@@++@@@@@@@@@@@@@@@@@@@@@@@@@@@@@@+++",
"++++++@@@@@@@@++++++++++++@@@@@@@@@@@@@@@@@@@@@@@@@@@@@@@@@@@+++",
"++++++@@@@@@@@+++++++++++@@@@@@@@@@@@@@@@@@@@@@@@@@@@+++++++++++",
"+++++@@@@@@@@+++++++++++@@@@@@@@@@@@@@@@@@@@@+++++++++++++++++++",
"++++@@@@@@@@@++++.  . ++@@@@@@@@@@@@@@@@@@++++++++++++++++++++++",
"++++@@@@@@@@@++++  .. ++++@@@@@@@@@@@@@@++++++++++++++++++++++++",
"++++@@@@@@@@@@+++ .... +++++++@@@@@@@@@@@@@@@@@@@@@@@@@@@@@+++++",
"++++@@@@@@@@@@@++ .... .+++++++++@@@@@@@@@@@@@@@@@@@@@@@@@@@@@++",
"+++++@@@@@@@@@@++ .... .+++++++++@@@@@@@@@@@@@@@@@@@@@@@@@@@@@@@",
"++++++@@@@@@@@+++oo... .+++++++++@@@@@@@@@@@@@@@@@@@@@++++++++++",
"+++++++@@@@@@++++OOoX. .+++++++++@@@@@@@@@@@@@@+++++++++++++++++",
"++++++++++++++++ooOoX. .++++++++++++++++++++++++++++++++++++++++",
"+++++++++++++++++oXX . +++++++++++++++++++++++++++++++++++++++++",
"+++++++++++++++++  . . +++++++++++++++++++++++++++++++++++++++++",
"++++++++++++++++++ . . +++++++++++++++++++++++++++++++++++++++++",
"++++++++++++++++++ . . +++++++++++++++++++++++++++++++++++++++++",
"++++++++++++++++++ . . ++++++++   .++++++++++++++++++...++++++++",
"++++++++++++++++++ . . +++++++ +.. .++++++++++++++++.    +++++++",
"+++++++    +++++++ . . +++++++ ... ..+++++++++++++++  ... ++++++",
"+++++++ .. ++++++  . . ++++++  ... ..++++++++++++++  .... ++++++",
"++++++ ... ++++++ .. . ++++++ .. . ..++++++++++++++ ......  ++++",
"++++++ .... +++++ .. . ++++++ .. . .+++++++++++++++ .... ..  +++",
"++++++ .. . ++++  .. . ++++++ .  . .+++++ +++++++++ .... ..+ +++",
"++++++ .. . ++++ ... ..++++++ . .  ++++     +++++++ . .. ..+ +++",
"++++++ .. . ++++ ...  .++++++  .. ++++ ..... ++++++ . .. ... +++",
"+++++ ....  ++++ .... . ++++.  . .++++ ..... .+++++  . . ... +++",
"+++++ ....  ++++ . .. .. ++.   . +++++ ... .. ++++++ . . ... +++",
"+++++ ....  ++++ .. . ...   .o.XX+++++ ... .. .++++++ . . .. +++",
"+++++ ....  +++  .. . ......ooXOo++++ .... .. .++++++  .   . +++",
"+++++ ....  +++ ... . ..... oOOOoX+++ ....X... ++++++. .   .. ++",
"+++++ ....  +++  ... . ... ..ooOXX+++oo.XXX... +++++++ .. . . ++",
"+++++  .. . ++++ ... . ..  . o+oo++++oooXoX... .+++++++ ..  . ++",
"++++++oXX . ++++  .. .  . .+ ++oo+++++OOOoX... .+++++++ ..    ++",
"+++++oOoX . +++++ .. .. . .+ +++++++oooOOX .... +++++++ +..   ++",
"+++++ooX. .  ++++. .  . . .. +++++++oo+ooX .... +++++++  ..   ++",
"++++++ o. .+ +++++  . ..  ..+ +++++++++oX.. ... ++++++++ +.   ++",
"+++++. .. .+ +++++.  . .. ..+  +++++++++ ... .. ++++++++ +.   ++",
"+++++. .. .. ++++++.  . .  ..+ +++++++++  .. ... ++++++++ .   ++",
"+++++. .. .. +++++++. . .. ..+ ++++++++++  ..  .  ++++++++    ++",
"+++++ ... .. ++++++++. . . .++ +++++++++++  .. ..  +++++++     +",
"+++++ ... .. +++++++++  .  ..+ +++++++++++++ .. .. ++++++++  . +",
"+++++ ... ... +++++++++    ... +++++++++++++ .. ... +++++++ ..++",
"++++ ..... .. ++++++++++ .  .  ++++++++++++++ . ...  +++++. ..  ",
"+++ ...... ...  ++++++++ .. . . +++++++++++++ .. ....  + o  ..  ",
"+   ....... ... ++++++++ .. . . +++++++++++++ .. ......ooOo ..  ",
". ...... .. ...+  ++++++ +. ..  +++++++++++++ .. .. . .oOOooX. .",
"..... .. ... ...+  ++++++ . .. . ++++++++++++ .. .. . ..oooXX. .",
".... .. .... .....+  ++++ . .. . +++++++++++. .. .. . .XXoo.. ..",
".... .. .... ......+  +++ . ..  .  ++++++     .. .  . ...XX.. ..",
"... ... .... ... ...++ + +. ...  .  ....  .. .. ..  . .. . .. ..",
".. ...  ..... ..  ....   .. ... ...      ...  . ..  . .. . .. ..",
".. ...  ... . ..  .... .......  .  ..    ...    .     .  . .. ..",
"  . .    ..     . . .  ..    .  .    ...   ..   .     ..   .. ..",
"                                 .                             ."
};
